<svg t="1769074949547" class="icon" viewBox="0 0 1024 1024" version="1.1" xmlns="http://www.w3.org/2000/svg" p-id="5328" width="200" height="200">
  <path d="M512 133.5c26.6 0 53.3 2.7 79.3 8.1 26.3 5.4 52.2 13.6 76.9 24.3l169.7 73.5v214c0.1 50.7-8.5 100.6-25.5 148.3-16.8 47.3-40.7 91.3-71.2 130.9l-0.1 0.2-0.1 0.2c-30.5 40.3-67 75.1-108.5 103.5-37 25.2-77.5 43.9-120.4 55.6-43.1-11.7-83.8-30.6-120.8-55.8-41.6-28.4-78.1-63.2-108.5-103.5l-0.1-0.1-0.1-0.1c-30.2-39.5-54-83.5-70.7-130.6v-0.2c-17.1-47.7-25.6-97.6-25.5-148.3v-214L356 165.9c24.7-10.7 50.6-18.8 76.9-24.3 25.8-5.4 52.4-8.1 79.1-8.1m0-54.3c-60.5 0-121.1 12.3-177.8 36.9l-202.4 87.6v249.7c-0.2 56.9 9.6 113.2 28.7 166.7 18.5 52.4 45.1 101.4 78.7 145.5 33.9 44.9 74.9 83.9 121.3 115.7 46.1 31.5 97.3 54.2 151.5 67 54-12.8 105.1-35.5 151.1-66.8 46.4-31.7 87.3-70.8 121.3-115.7 33.9-44.1 60.6-93.4 79.3-145.9a493.22 493.22 0 0 0 28.7-166.7V203.7L689.7 116C633 91.5 572.5 79.2 512 79.2z" fill="#FF69B4" p-id="5329"/>
  <path d="M687.6 362.8l-58.2 99.5-3.4 3.4v271c0 27.4-24 51.5-51.3 51.5-24 0-44.5-120.1-51.3-171.5-3.4 51.5-24 171.5-51.3 171.5s-51.3-24-51.3-51.5v-271l-3.4-3.4-58.4-99.5c-13.7-17.2-6.8-37.7 13.7-48 17.1-10.3 41.1-6.9 51.3 13.7l51.3 82.3h95.8l51.3-85.8c10.3-17.2 34.2-24 54.8-13.7 17.3 10.3 24.1 34.3 10.4 51.5z m-164.3 13.7c-37.7 0-68.5-30.9-68.5-68.6s30.8-68.6 68.5-68.6 68.5 30.9 68.5 68.6-30.8 68.6-68.5 68.6z" fill="#FF69B4" p-id="5330"/>
</svg>

