<svg viewBox="0 0 1024 1024" xmlns="http://www.w3.org/2000/svg"><path d="M850.624 485.44v214.144c0 174.336-151.744 315.648-339.072 315.648-187.264 0-339.072-141.312-339.072-315.648V453.568" fill="#EBCF44"/><path d="M172.48 460.352V335.744c0-174.4 151.808-315.712 339.072-315.712 187.328 0 339.072 141.312 339.072 315.712v153.152" fill="#EBCF44"/><path d="M546.56 993.664c-189.888 0-345.28-151.936-345.28-337.664V352.704c0-166.272 124.544-305.344 286.912-332.672-175.04 7.68-315.776 149.952-315.776 322.944v334.592c0 177.792 148.8 323.328 330.688 323.328H520c34.112 0 67.136-5.056 98.112-14.592a351.488 351.488 0 0 1-71.552 7.36" fill="#FFFFFF"/><path d="M436.672 1002.368c213.312 0 381.12-140.16 381.12-328.064v-320.32c0-168.192-133.12-308.992-315.52-336.576 196.544 7.808 354.688 151.744 354.688 326.72V682.56c0 179.904-167.104 327.04-371.392 327.04h-19.072c-38.336 0-64.96-10.496-99.84-20.096 25.92 4.864 42.432 12.864 70.016 12.864" fill="#E8883B"/><path d="M163.328 418.688a13.504 13.504 0 0 1-13.504-13.504v-2.24a13.504 13.504 0 0 1 27.072 0v2.24a13.504 13.504 0 0 1-13.568 13.504m0 42.752a13.44 13.44 0 0 1-13.504-13.504v-7.616a13.568 13.568 0 1 1 27.072 0v7.616a13.504 13.504 0 0 1-13.568 13.504" fill="#2C2D2D"/><path d="M512 1023.168c-199.744 0-362.24-147.712-362.24-329.28V448a13.568 13.568 0 1 1 27.072 0v245.952c0 166.656 150.336 302.144 335.168 302.144 184.704 0 335.104-135.488 335.104-302.144v-166.72a13.568 13.568 0 0 1 27.136 0v166.72c0 181.568-162.496 329.216-362.24 329.216m348.608-530.304a13.568 13.568 0 0 1-13.504-13.504V330.112c0-166.592-150.4-302.144-335.168-302.144s-335.04 135.552-335.04 302.144v36.608a13.568 13.568 0 0 1-27.072 0v-36.608C149.76 148.608 312.256 0.896 512 0.896c199.808 0 362.304 147.712 362.304 329.216V479.36a13.696 13.696 0 0 1-13.696 13.504" fill="#2C2D2D"/><path d="M761.344 418.304a249.344 249.344 0 1 1-498.752 0 249.408 249.408 0 0 1 498.752 0" fill="#FDF5EE"/><path d="M512 681.28a263.232 263.232 0 0 1-262.912-262.912c0-145.024 117.952-262.912 262.912-262.912s262.848 117.952 262.848 262.912A263.168 263.168 0 0 1 512 681.28m0-498.816a236.16 236.16 0 0 0-235.84 235.904A236.16 236.16 0 0 0 512 654.272a236.16 236.16 0 0 0 235.84-235.904A236.16 236.16 0 0 0 512 182.464M170.293 562.728l584.56 352.017-13.999 23.247-584.56-352.017z" fill="#2C2D2D"/><path d="M854.245 590.602l12.553 23.985-348.273 182.275-12.553-23.986zM486.72 396.288h-27.072c0-18.624-15.232-33.856-33.856-33.856s-33.856 15.232-33.856 33.856h-27.072a60.992 60.992 0 0 1 121.856 0m182.144 0h-27.136c0-18.624-15.232-33.856-33.856-33.856s-33.856 15.232-33.856 33.856h-27.072a61.056 61.056 0 0 1 121.92 0M514.688 564.224a79.616 79.616 0 0 1-79.488-79.552h27.072a52.48 52.48 0 0 0 104.96 0h27.008c0 43.84-35.712 79.552-79.552 79.552" fill="#2C2D2D"/></svg>
