<svg width="96" height="96" viewBox="0 0 96 96" fill="none" xmlns="http://www.w3.org/2000/svg">
  <defs>
    <linearGradient id="g" x1="16" y1="8" x2="80" y2="88" gradientUnits="userSpaceOnUse">
      <stop stop-color="#FFE8F0"/>
      <stop offset="1" stop-color="#EDE7FF"/>
    </linearGradient>
  </defs>
  <rect x="16" y="10" width="60" height="76" rx="14" fill="url(#g)" stroke="#8B5CF6" stroke-width="3"/>
  <rect x="24" y="22" width="44" height="6" rx="3" fill="#8B5CF6" opacity="0.25"/>
  <rect x="24" y="34" width="36" height="6" rx="3" fill="#8B5CF6" opacity="0.18"/>
  <rect x="24" y="46" width="40" height="6" rx="3" fill="#8B5CF6" opacity="0.18"/>
  <circle cx="34" cy="66" r="10" fill="#8B5CF6" opacity="0.20"/>
  <path d="M34 60c3.2 0 5.8 2.6 5.8 5.8 0 1.6-.6 3-1.7 4.1-1 1-2.4 1.7-4.1 1.7-3.2 0-5.8-2.6-5.8-5.8 0-3.2 2.6-5.8 5.8-5.8z" fill="#8B5CF6" opacity="0.55"/>
  <path d="M50 60c0-1.7 1.3-3 3-3h12c1.7 0 3 1.3 3 3v14c0 1.7-1.3 3-3 3H53c-1.7 0-3-1.3-3-3V60z" fill="#8B5CF6" opacity="0.20"/>
  <path d="M56 63h6" stroke="#8B5CF6" stroke-width="3" stroke-linecap="round"/>
  <path d="M56 69h10" stroke="#8B5CF6" stroke-width="3" stroke-linecap="round" opacity="0.7"/>
</svg>
