<svg t="1768546064487" class="icon" viewBox="0 0 1024 1024" version="1.1" xmlns="http://www.w3.org/2000/svg" p-id="8181" width="200" height="200"><path d="M873.6 944H150.4C112 944 80 912 80 873.6V150.4C80 112 112 80 150.4 80h723.2C912 80 944 112 944 150.4v723.2c0 38.4-32 70.4-70.4 70.4zM150.4 126.4c-12.8 0-24 11.2-24 24v723.2c0 12.8 11.2 24 24 24h723.2c12.8 0 24-11.2 24-24V150.4c0-12.8-11.2-24-24-24H150.4z" fill="#8766F3" p-id="8182"></path><path d="M801.6 568H222.4c-12.8 0-24-11.2-24-24V350.4c0-12.8 11.2-24 24-24h580.8c12.8 0 24 11.2 24 24V544c-1.6 12.8-11.2 24-25.6 24z m-556.8-48h532.8v-145.6H244.8v145.6z" fill="#8766F3" p-id="8183"></path><path d="M436.8 804.8H222.4c-12.8 0-24-11.2-24-24v-107.2c0-12.8 11.2-24 24-24h214.4c12.8 0 24 11.2 24 24v107.2c0 12.8-11.2 24-24 24z m-192-48h168v-60.8H244.8v60.8zM801.6 696H566.4c-12.8 0-24-11.2-24-24s11.2-24 24-24h236.8c12.8 0 24 11.2 24 24-1.6 14.4-11.2 24-25.6 24zM716.8 804.8h-150.4c-12.8 0-24-11.2-24-24s11.2-24 24-24h150.4c12.8 0 24 11.2 24 24s-11.2 24-24 24zM243.2 244.8h-20.8c-12.8 0-24-11.2-24-24s11.2-24 24-24h20.8c12.8 0 24 11.2 24 24s-11.2 24-24 24zM361.6 244.8h-20.8c-12.8 0-24-11.2-24-24s11.2-24 24-24h20.8c12.8 0 24 11.2 24 24s-11.2 24-24 24zM480 244.8h-20.8c-12.8 0-24-11.2-24-24s11.2-24 24-24H480c12.8 0 24 11.2 24 24s-11.2 24-24 24z" fill="#8766F3" p-id="8184"></path></svg>