<?xml version="1.0" standalone="no"?><!DOCTYPE svg PUBLIC "-//W3C//DTD SVG 1.1//EN" "http://www.w3.org/Graphics/SVG/1.1/DTD/svg11.dtd"><svg t="1767928146790" class="icon" viewBox="0 0 1024 1024" version="1.1" xmlns="http://www.w3.org/2000/svg" p-id="42637" xmlns:xlink="http://www.w3.org/1999/xlink" width="200" height="200"><path d="M593.92 896H419.84c-25.6 0-46.08 20.48-46.08 46.08v10.24c0 25.6 20.48 46.08 46.08 46.08h174.08c25.6 0 46.08-20.48 46.08-46.08v-10.24c5.12-20.48-20.48-46.08-46.08-46.08zM793.6 558.08c30.72-66.56 20.48-133.12-35.84-199.68h-10.24c-20.48 128-122.88 225.28-240.64 225.28-117.76 0-215.04-92.16-235.52-215.04 148.48 20.48 250.88-25.6 317.44-148.48C650.24 327.68 732.16 358.4 757.76 358.4c0-15.36 5.12-40.96 5.12-56.32 0-158.72-112.64-286.72-250.88-286.72C368.64 20.48 256 148.48 256 307.2c0 20.48 0 35.84 5.12 56.32-56.32 66.56-66.56 133.12-35.84 194.56 76.8 107.52 153.6 46.08 174.08 25.6 30.72 15.36 66.56 25.6 107.52 25.6s71.68-10.24 107.52-25.6c25.6 20.48 102.4 87.04 179.2-25.6z" fill="#FF6636" p-id="42638"></path><path d="M491.52 716.8c-30.72-20.48-56.32-40.96-76.8-71.68-15.36-20.48-66.56-10.24-30.72 61.44 35.84 71.68 97.28 66.56 112.64 46.08 15.36-10.24 10.24-25.6-5.12-35.84zM604.16 645.12c-20.48 30.72-46.08 51.2-76.8 71.68-15.36 10.24-20.48 20.48-10.24 35.84 15.36 20.48 76.8 25.6 112.64-46.08 35.84-71.68-15.36-81.92-25.6-61.44zM271.36 670.72c-81.92-10.24-138.24 51.2-179.2 179.2C184.32 870.4 256 921.6 302.08 998.4c15.36-61.44 25.6-128 25.6-215.04 5.12-61.44-15.36-97.28-56.32-112.64zM752.64 670.72c-40.96 15.36-61.44 51.2-56.32 112.64 0 81.92 10.24 153.6 25.6 215.04 46.08-76.8 117.76-128 209.92-153.6-40.96-122.88-97.28-179.2-179.2-174.08z" fill="#FF6636" p-id="42639"></path></svg>