<svg viewBox="0 0 1024 1024" version="1.1" xmlns="http://www.w3.org/2000/svg" width="200" height="200">
  <path d="M469.6064 449.0752c-27.0848-27.8528-70.8096-30.7712-101.2736-6.7072-87.9104 69.3248-232.1408 211.0976-193.024 469.0944 165.3248 0 386.816 1.536 386.816 1.536v-215.3472l44.544 40.8576c21.3504 19.6096 54.8352 17.3056 73.3184-5.0176 16.5376-19.968 15.36-49.152-2.7136-67.6864L469.6064 449.0752zM820.9408 213.9136c-6.656-23.9616-31.488-37.9392-55.3984-31.2832l-20.3776 5.6832c-17.5104-19.0976-47.3088-51.5072-58.624-63.1808-16.384-16.896-36.8128-18.3808-60.5184-14.4384-23.7056 3.9936-90.9824 21.8624-120.1664 33.9968-29.184 12.0832-33.792 28.672-40.7552 64-4.864 24.6272-7.7824 48.128-9.1136 60.0576l-6.7072 1.8432c-23.9616 6.656-37.9392 31.488-31.2832 55.3984a14.2848 14.2848 0 0 0 17.5616 9.9328l148.48-41.3184-70.2976 19.5584c-0.2048 2.8672-0.3584 5.7344-0.3584 8.6528 0 64.1024 51.968 116.0704 116.0704 116.0704s116.0704-51.968 116.0704-116.0704c0-25.0368-7.936-48.2304-21.4528-67.1744l86.9376-24.1664a14.2848 14.2848 0 0 0 9.9328-17.5616z" fill="#4F9EFF"/>
  <path d="M469.6064 449.0752c-27.0848-27.8528-70.8096-30.7712-101.2736-6.7072-66.6112 52.5312-165.4272 146.688-192.4608 301.4144 5.376 2.3552 10.8544 4.6592 16.384 6.8096 125.4912 49.152 259.8912 36.7616 369.92-22.4768v-30.4128l20.4288 18.7392c29.4912-17.9712 56.9856-39.424 81.7664-64.1024l-194.7648-203.264z" fill="#4F9EFF"/>
  <path d="M559.9232 543.3856L469.6064 449.0752c-27.0848-27.8528-70.8096-30.7712-101.2736-6.7072-47.1552 37.1712-110.5408 95.2832-153.088 180.992 122.9824 23.2448 247.7568-7.7312 344.6784-79.9744zM736.6656 179.0464c-17.4592-18.9952-40.4992-43.9808-50.1248-53.9136-16.384-16.896-36.8128-18.3808-60.5184-14.4384-23.7056 3.9936-90.9824 21.8624-120.1664 33.9968-29.184 12.0832-33.792 28.672-40.7552 64-4.864 24.6272-7.7824 48.128-9.1136 60.0576l-6.7072 1.8432c-23.9616 6.656-37.9392 31.488-31.2832 55.3984a14.2848 14.2848 0 0 0 17.5616 9.9328l78.1312-21.76c-0.2048 2.8672-0.3584 5.7344-0.3584 8.6528 0 64.1024 51.968 116.0704 116.0704 116.0704 11.8784 0 23.296-1.792 34.048-5.0688a442.60352 442.60352 0 0 0 42.8544-82.6368 442.88 442.88 0 0 0 23.9616-85.5552c-1.9456-3.4304-3.9936-6.7584-6.2464-9.9328l8.192-2.304c3.6864-24.8832 5.12-49.7152 4.4544-74.3424z" fill="#4F9EFF"/>
  <path d="M653.7216 109.312c-8.6528-0.9216-17.8688-0.256-27.6992 1.3824-23.7056 3.9936-90.9824 21.8624-120.1664 33.9968-29.184 12.0832-33.792 28.672-40.7552 64-4.864 24.6272-7.7824 48.128-9.1136 60.0576l-6.7072 1.8432c-23.9616 6.656-37.9392 31.488-31.2832 55.3984a14.2848 14.2848 0 0 0 17.5616 9.9328l78.1312-21.76c-0.2048 2.8672-0.3584 5.7344-0.3584 8.6528 0 5.5808 0.4096 11.0592 1.1776 16.4352 51.9168-44.8512 94.0032-102.656 120.7296-171.008 7.68-19.456 13.7728-39.168 18.4832-58.9312z" fill="#4F9EFF"/>
  <path d="M734.1056 668.672c-6.9632 0-13.7216 0.9216-20.224 2.4576-3.7376-9.0112-9.1136-17.408-16.2816-24.7808L489.7792 429.4144a103.72608 103.72608 0 0 0-138.9056-9.1648c-165.0688 130.1504-233.5232 296.8576-203.4176 495.4624a28.19072 28.19072 0 0 0 27.8528 23.9616c163.3792 0 384.4096 1.536 386.6112 1.536h0.2048a28.12416 28.12416 0 0 0 28.16-28.16v-151.3984c15.5136 13.0048 35.7888 19.6608 56.0128 18.2272 3.3792-0.256 6.7584-0.768 10.0864-1.4336a28.14464 28.14464 0 0 0 46.08-21.7088c0-2.6112 0.3584-5.0688 0.9216-7.4752 3.8912-5.0688 7.168-10.4448 9.6768-16.0768a31.50848 31.50848 0 0 1 21.0944-8.0896c17.4592 0 31.6928 14.2336 31.6928 31.6928v161.9968c0 15.5648 12.5952 28.16 28.16 28.16s28.16-12.5952 28.16-28.16v-161.9968c-0.1024-48.64-39.5776-88.1152-88.064-88.1152z m-108.4416 49.1008l-44.544-40.8576a28.17024 28.17024 0 0 0-47.2064 20.7872v186.9824c-61.0816-0.4096-209.5104-1.2288-333.9776-1.3312-18.5344-168.6016 42.3936-305.8176 185.7536-418.8672 19.2-15.1552 46.592-13.312 63.5392 4.0448l207.7696 216.9344a22.44096 22.44096 0 0 1 6.0416 19.456c-3.2256 4.4032-5.9904 9.0624-8.3456 14.0288-3.4816 2.7136-7.7312 4.4032-12.288 4.7104-6.2464 0.4096-12.1344-1.6384-16.7424-5.888zM848.0768 206.336c-10.8032-38.8608-51.2-61.6448-90.0608-50.8416l-3.7376 1.024c-16.896-18.3808-38.1952-41.4208-47.4624-50.9952-27.5968-28.4672-61.952-26.5216-85.3504-22.5792-25.3952 4.2496-94.9248 22.7328-126.3104 35.7376-44.5952 18.4832-50.8928 50.5856-57.6 84.5312-3.2256 16.2304-5.5808 32-7.2704 44.544-31.6928 14.8992-48.9984 50.944-39.3216 85.8112a42.1632 42.1632 0 0 0 20.0192 25.6c6.4512 3.6352 13.568 5.5296 20.7872 5.5296 3.84 0 7.68-0.512 11.4176-1.5872l44.8-12.4416c13.0048 66.304 71.4752 116.48 141.5168 116.48 79.5136 0 144.2304-64.7168 144.2304-144.2304 0-17.0496-3.072-33.6384-8.7552-49.3056l53.6064-14.8992c10.9056-3.0208 20.0192-10.1376 25.6-20.0192s6.912-21.4528 3.8912-32.3584z m-130.7136 116.48c0 48.4864-39.424 87.9104-87.9104 87.9104-44.1856 0-80.896-32.768-87.04-75.3152l123.0336-34.2528 45.0048-12.4928c4.5568 10.752 6.912 22.272 6.912 34.1504zM448.4608 303.104c2.0992-2.5088 4.9664-4.4544 8.3456-5.376l6.7072-1.8432c11.1104-3.072 19.2-12.5952 20.4288-24.0128 1.28-11.4176 4.096-34.0992 8.7552-57.7024 6.8096-34.4576 9.0624-37.2736 23.9104-43.4176 26.7776-11.1104 91.5968-28.4672 114.0224-32.2048 5.9392-0.9728 10.8032-1.4336 14.9504-1.4336 10.6496 0 16.128 3.0208 20.6848 7.7312 11.1616 11.4688 41.1648 44.1344 58.0608 62.5664a28.07808 28.07808 0 0 0 28.3136 8.0896l20.3776-5.6832c3.4304-0.9216 6.8608-0.768 9.9328 0.3072L448.4608 303.104z" fill="#4F9EFF"/>
</svg>