<svg t="1767954785240" class="icon" viewBox="0 0 1024 1024" version="1.1" xmlns="http://www.w3.org/2000/svg" p-id="51869" width="200" height="200"><path d="M512 138.24c206.4384 0 373.76 167.3216 373.76 373.76S718.4384 885.76 512 885.76a372.4288 372.4288 0 0 1-251.06432-96.8704 25.6 25.6 0 1 1 34.4064-37.92896A321.2288 321.2288 0 0 0 512 834.56c178.13504 0 322.56-144.42496 322.56-322.56S690.13504 189.44 512 189.44 189.44 333.86496 189.44 512c0 57.38496 14.97088 112.51712 43.02848 161.0752a25.6 25.6 0 1 1-44.3392 25.6A372.1216 372.1216 0 0 1 138.24 512C138.24 305.5616 305.5616 138.24 512 138.24z m-10.24 286.72c14.1312 0 25.6 11.4688 25.6 25.6v259.74784a25.6 25.6 0 1 1-51.2 0V450.56c0-14.1312 11.4688-25.6 25.6-25.6z m0-97.28c14.1312 0 25.6 11.4688 25.6 25.6v10.24a25.6 25.6 0 0 1-51.2 0v-10.24c0-14.1312 11.4688-25.6 25.6-25.6z" fill="#8766F3" p-id="51870"></path></svg>

