<svg viewBox="0 0 1024 1024" xmlns="http://www.w3.org/2000/svg"><path d="M781.653333 988.16H249.173333c-78.506667 0-141.653333-63.146667-141.653333-141.653333V174.08c0-78.506667 63.146667-141.653333 141.653333-141.653333h532.48c78.506667 0 141.653333 63.146667 141.653334 141.653333v670.72c0 80.213333-63.146667 143.36-141.653334 143.36z m-532.48-904.533333c-49.493333 0-90.453333 40.96-90.453333 90.453333v670.72c0 49.493333 40.96 90.453333 90.453333 90.453333h532.48c49.493333 0 90.453333-40.96 90.453334-90.453333V174.08c0-49.493333-40.96-90.453333-90.453334-90.453333H249.173333z" fill="#8766F3"/><path d="M766.293333 279.893333H262.826667c-13.653333 0-25.6-11.946667-25.6-25.6s11.946667-25.6 25.6-25.6h503.466666c13.653333 0 25.6 11.946667 25.6 25.6s-10.24 25.6-25.6 25.6zM766.293333 443.733333H262.826667c-13.653333 0-25.6-11.946667-25.6-25.6s11.946667-25.6 25.6-25.6h503.466666c13.653333 0 25.6 11.946667 25.6 25.6s-10.24 25.6-25.6 25.6zM513.706667 605.866667H262.826667c-13.653333 0-25.6-11.946667-25.6-25.6s11.946667-25.6 25.6-25.6h250.88c13.653333 0 25.6 11.946667 25.6 25.6s-11.946667 25.6-25.6 25.6zM662.186667 855.04c-3.413333 0-6.826667 0-10.24-1.706667-15.36-3.413333-27.306667-15.36-30.72-30.72l-11.946667-52.906666-49.493333-20.48c-15.36-6.826667-23.893333-20.48-25.6-35.84-1.706667-15.36 6.826667-30.72 20.48-37.546667l46.08-27.306667 5.12-52.906666c1.706667-15.36 10.24-29.013333 25.6-35.84 15.36-6.826667 30.72-3.413333 42.666666 6.826666l39.253334 35.84 52.906666-11.946666c15.36-3.413333 30.72 1.706667 40.96 13.653333 10.24 11.946667 11.946667 29.013333 6.826667 42.666667l-22.186667 49.493333 27.306667 46.08c8.533333 13.653333 8.533333 30.72 0 44.373333s-23.893333 20.48-39.253333 18.773334l-52.906667-5.12-34.133333 40.96c-6.826667 8.533333-18.773333 13.653333-30.72 13.653333z m-63.146667-146.773333l56.32 23.893333 11.946667 59.733333 39.253333-46.08 61.44 5.12-32.426667-51.2 23.893334-54.613333-59.733334 13.653333-44.373333-40.96-5.12 59.733334-51.2 30.72z m180.906667-68.266667zM657.066667 597.333333c0 1.706667 0 1.706667 0 0z" fill="#8766F3"/><path d="M783.36 965.973333H384c-51.2 0-92.16-40.96-92.16-92.16V399.36c0-51.2 40.96-92.16 92.16-92.16H785.066667c51.2 0 92.16 40.96 92.16 92.16v474.453333c-1.706667 51.2-42.666667 92.16-93.866667 92.16z" fill="#8766F3" opacity=".3"/></svg>

