<svg t="1774615532841" class="icon" viewBox="0 0 1024 1024" version="1.1" xmlns="http://www.w3.org/2000/svg" p-id="5363" width="200" height="200"><path d="M818.232 702.618c-10.769-22.691-19.091-46.529-32.784-67.867-33.772-52.594-81.915-84.648-158.147-81.369-71.381 3.072-143.213 2.751-214.62-0.121-43.535-1.753-77.977 9.25-98.291 40.029-36.358 55.146-91.296 131.517-102.107 168.752-10.812 37.243-17.546 48.846 0 89.144 17.546 40.308 99.921 110.048 151.482 118.864 51.562 8.825 137.47 8.4 163.138 0 25.677-8.391 34.06-57.245 16.903-83.659-8.33-12.834-45.895-15.871-70.427-16.375-49.522-1.015-100.19 6.274-140.662-27.187 3.133-4.651 4.408-9.068 6.639-9.458 30.936-5.294 62.001-10.058 93.04-14.943-7.063-25.061-24.323-47.709-20.123-75.303 4.2-27.595 8.912-21.208 13.901-31.873 11.523 6.239 24.054 11.532 34.198 19.117 5.181 3.887 6.021 11.923 8.911 18.058 26.519 56.144 69.464 89.578 153.731 68.986-15.837 33.287-66.357 57.254-17.416 85.838 41.756 24.384 87.617 20.791 122.006-10.578 33.781-30.806 78.774-65.724 90.628-100.911s0-59.432 0-89.144zM617.764 815.6c-51.632 0.398-91.644-43.015-92.511-85.978-0.868-42.754 39.438-86.289 89.456-87.069 49.488-0.79 85.751 42.346 86.715 84.275 0.981 42.581-33.373 88.39-83.66 88.772zM354.931 526.673c36.037 2.108 53.062-2.776 71.546-32.74 26.336 14.535 55.744 22.7 86.758 22.7 31.977 0 62.235-8.669 89.17-24.041 18.796 31.113 35.786 36.216 72.336 34.081 20.965-1.224 40.237-11.159 59.51-36.832 6.518-8.673 37.036-61.362 26.936-112.694-8.582-43.64-28.558-59.775-40.984-65.732-2.325-3.554-4.261-8.89-3.904-16.978 0.095-2.399 0.043-4.13-0.131-5.337 0.104-3.006 0.261-6 0.261-9.024 0.018-130.444-91.14-236.583-203.192-236.583-112.044 0-203.201 106.139-203.201 236.583 0 2.872 0.156 5.719 0.251 8.582-0.269 1.206-0.373 3.042-0.251 5.914 0.477 11.111-3.271 17.09-6.534 20.262-1.319 0.863-2.682 1.866-4.079 2.968a8.355 8.355 0 0 1-0.477 0.195l0.061 0.13c-11.272 9.116-24.089 26.337-30.519 59.012-10.109 51.332 20.427 104.021 26.961 112.703 19.253 25.654 38.526 35.607 59.482 36.831z m30.311-204.199c78.766 0 158.304-37.955 194.229-122.752 29.104 67.489 68.795 100.538 121.745 110.174-12.426 108.998-91.964 193.356-187.98 193.356-93.526 0-171.407-80.028-186.879-184.922 17.806 3.094 39.23 4.144 58.885 4.144z" p-id="5364" fill="#8766F3"></path></svg>