<?xml version="1.0" standalone="no"?><!DOCTYPE svg PUBLIC "-//W3C//DTD SVG 1.1//EN" "http://www.w3.org/Graphics/SVG/1.1/DTD/svg11.dtd"><svg t="1767928219743" class="icon" viewBox="0 0 1024 1024" version="1.1" xmlns="http://www.w3.org/2000/svg" p-id="43852" xmlns:xlink="http://www.w3.org/1999/xlink" width="200" height="200"><path d="M432.832 62.496c15.04 0 29.76 2.88 43.52 8.96 13.44 5.44 25.28 13.44 35.52 24 10.56 10.24 18.56 22.08 24 35.52 6.08 13.76 8.96 28.48 8.96 43.52 0 15.04-2.88 29.76-8.96 43.52-5.44 13.44-13.44 25.28-24 35.52-10.24 10.56-22.08 18.56-35.52 24-13.76 6.08-28.48 8.96-43.52 8.96-15.04 0-29.76-2.88-43.52-8.96-13.44-5.44-25.28-13.44-35.52-24-10.56-10.24-18.56-22.08-24-35.52-6.08-13.76-8.96-28.48-8.96-43.52 0-15.04 2.88-29.76 8.96-43.52 5.44-13.44 13.44-25.28 24-35.52 10.24-10.56 22.08-18.56 35.52-24 13.76-6.08 28.48-8.96 43.52-8.96z m-33.92 145.92c9.28 9.28 20.8 14.08 33.92 14.08 13.12 0 24.64-4.8 33.92-14.08 9.28-9.28 14.08-20.8 14.08-33.92 0-13.12-4.8-24.64-14.08-33.92-9.28-9.28-20.8-14.08-33.92-14.08-13.12 0-24.64 4.8-33.92 14.08-9.28 9.28-14.08 20.8-14.08 33.92 0 13.12 4.8 24.64 14.08 33.92z m105.6 173.12l-105.92 108.8c-3.2 2.88-6.4 5.12-10.56 7.04-3.84 1.28-7.68 2.56-12.16 2.56-4.16 0-8.32-0.64-12.16-2.24s-7.36-3.84-10.56-6.72c-1.6-1.6-2.88-3.52-3.84-4.8a36.48 36.48 0 0 1-3.2-6.08l-1.92-5.44c-0.32-2.24-0.64-4.16-0.64-6.4 0-1.92 0-4.16 0.64-6.08 0.32-2.24 0.96-4.16 1.6-6.08 0.96-2.24 1.92-3.84 2.88-5.44 1.28-1.92 2.56-3.84 3.84-5.12l199.36-204.48c0.96-0.96 1.92-1.6 2.88-2.56l3.2-3.2c10.56-10.56 23.04-16 37.76-16.64 15.36-0.64 28.48 4.16 39.36 14.08l168.64 148.48 0.64 0.64c4.8 4.48 10.88 10.88 17.92 18.88 13.76 16 27.2 32.96 40 51.2 40.96 58.24 69.44 118.08 84.8 179.2 1.92 7.36 1.92 14.72 0.32 22.08a48.064 48.064 0 0 1-25.28 32.64c-6.72 3.52-14.08 5.12-21.76 5.12h-33.6v231.36c0 2.24-0.32 4.16-0.64 6.4-0.32 1.92-0.96 3.84-1.92 5.76-0.64 1.92-1.6 3.84-2.88 5.76l-3.84 4.8-4.8 3.84c-1.92 1.28-3.84 2.24-5.76 2.88-1.92 0.96-3.84 1.6-5.76 1.92-2.24 0.32-4.16 0.64-6.4 0.64s-4.16-0.32-6.4-0.64a20.352 20.352 0 0 1-5.76-1.92 24.224 24.224 0 0 1-5.76-2.88l-4.8-3.84-3.84-4.8a24.224 24.224 0 0 1-2.88-5.76 20.352 20.352 0 0 1-1.92-5.76c-0.32-2.24-0.64-4.16-0.64-6.4v-231.36h-64v231.36c0 2.24-0.32 4.16-0.64 6.4-0.32 1.92-0.96 3.84-1.92 5.76-0.64 1.92-1.6 3.84-2.88 5.76l-3.84 4.8-4.8 3.84c-1.92 1.28-3.84 2.24-5.76 2.88-1.92 0.96-3.84 1.6-5.76 1.92-2.24 0.32-4.16 0.64-6.4 0.64s-4.16-0.32-6.4-0.64a20.352 20.352 0 0 1-5.76-1.92 24.224 24.224 0 0 1-5.76-2.88l-4.8-3.84-3.84-4.8a24.224 24.224 0 0 1-2.88-5.76 20.352 20.352 0 0 1-1.92-5.76c-0.32-2.24-0.64-4.16-0.64-6.4v-231.36h-48c-7.36 0-14.4-1.6-20.8-4.8-6.4-2.88-11.84-7.04-16.32-12.48s-7.68-11.52-9.6-18.24c-1.92-7.36-1.92-14.4-0.64-21.76l0.32-1.28 35.2-127.04c0-0.96 0.32-2.24 0.32-3.52 0.32-4.48 0.32-8.64 0-12.8-0.64-10.24-3.84-17.6-8.64-21.76-17.28-13.76-50.88-42.56-102.08-85.76z m45.12-45.76c48.64 41.28 81.28 68.8 97.6 82.24 10.56 8.64 18.88 19.84 24.32 33.28 4.16 9.92 6.72 20.8 7.68 32.64 0.96 12.48 0.32 24.32-1.92 34.88v1.28l-29.76 106.88h232c-14.4-46.72-37.44-92.8-69.76-138.24a527.264 527.264 0 0 0-49.6-60.8l-161.92-142.4s-0.32 0-0.32 0.32l-3.52 3.52z m-37.44 174.72l-62.08 64.64 0.32 66.88-4.48 7.68c-3.52 6.08-8.32 12.48-14.72 19.84-12.48 13.76-26.56 25.28-42.24 33.92-22.4 12.48-46.4 18.56-72 17.92-30.4-0.32-61.44-10.24-93.44-29.44-1.92-1.28-3.52-2.56-5.12-3.84-0.96-0.64-1.6-1.28-2.24-1.92a28.352 28.352 0 0 1-10.88-11.84c-1.92-3.84-3.2-7.68-3.84-11.84v-3.84c-11.84 11.2-27.84 18.24-45.44 18.24-35.84 0-64.96-29.12-64.96-65.28 0-35.84 29.12-64.96 64.96-64.96 30.72 0 56.32 20.8 63.36 49.28l2.24-7.68 15.36-50.88c0.64-1.92 1.6-3.84 2.56-5.76s1.92-3.52 3.52-5.12c1.28-1.6 2.56-3.2 4.48-4.48 1.6-1.28 3.2-2.56 5.12-3.52s3.84-1.92 5.76-2.56c1.92-0.64 4.16-0.96 6.08-1.28h6.4c1.92 0.32 4.16 0.64 6.08 1.28 4.16 1.28 7.68 3.2 10.88 6.08 3.52 2.56 6.08 5.76 8 9.6 1.92 3.52 3.2 7.68 3.84 11.84 0.32 4.16 0 8.32-1.28 12.48l-15.36 50.88-11.52 38.4c32.64 15.68 61.12 16.32 86.4 2.24 9.28-5.12 17.6-11.84 25.28-20.48 1.28-1.28 2.24-2.56 3.2-3.52l-0.32-73.92 80-83.2c1.28-1.6 2.88-2.88 4.8-4.16a30.4 30.4 0 0 1 5.44-3.2c1.92-0.64 3.84-1.28 6.08-1.92 1.92-0.32 3.84-0.64 6.08-0.64s4.16 0 6.4 0.64c1.92 0.32 3.84 0.64 5.76 1.6 2.24 0.64 3.84 1.6 5.76 2.88 1.6 0.96 3.52 2.24 4.8 3.84 3.2 2.88 5.44 6.4 7.36 10.24a31.84 31.84 0 0 1 0.32 24.32c-1.6 4.16-3.84 7.68-6.72 10.56z m34.56 245.12c-31.68 13.44-66.24 23.68-103.68 30.72-38.08 7.36-77.76 10.88-118.72 10.88-42.24 0-83.52-3.84-122.88-11.84-39.04-7.68-74.56-18.56-106.88-32.96a26.88 26.88 0 0 1-9.92-7.04c-3.2-3.2-5.44-6.72-6.72-10.56a31.552 31.552 0 0 1-2.24-12.16c0-4.48 0.96-8.32 2.88-12.48a22.4 22.4 0 0 1 7.04-9.92c1.6-1.6 3.2-2.88 4.8-3.84 1.92-1.28 3.84-2.24 5.76-2.88 1.92-0.96 3.84-1.28 6.08-1.92 1.92-0.32 4.16-0.32 6.08-0.32 2.24 0 4.48 0.32 6.4 0.64 1.92 0.64 4.16 1.28 6.08 2.24 27.84 12.16 58.88 21.76 92.8 28.48 35.52 7.04 72.64 10.56 110.72 10.56 36.8 0 72.64-3.2 106.88-9.6 32.96-6.4 63.04-15.36 90.56-26.88a33.152 33.152 0 0 1 24.64-0.32c3.84 1.6 7.36 3.84 10.24 7.04 3.2 2.88 5.44 6.4 7.04 10.24 0.96 1.92 1.6 3.84 1.92 6.08 0.32 1.92 0.64 4.16 0.64 6.08 0 2.24-0.32 4.16-0.64 6.4-0.32 1.92-0.96 3.84-1.6 6.08-0.96 1.92-1.92 3.52-2.88 5.44-1.28 1.6-2.56 3.2-4.16 4.8-1.28 1.6-2.88 2.88-4.8 4.16-1.6 0.96-3.52 2.24-5.44 2.88z" p-id="43853" fill="#FFB7C5"></path></svg>