<?xml version="1.0" standalone="no"?><!DOCTYPE svg PUBLIC "-//W3C//DTD SVG 1.1//EN" "http://www.w3.org/Graphics/SVG/1.1/DTD/svg11.dtd"><svg t="1767927827526" class="icon" viewBox="0 0 1024 1024" version="1.1" xmlns="http://www.w3.org/2000/svg" p-id="32314" id="mx_n_1767927827527" xmlns:xlink="http://www.w3.org/1999/xlink" width="200" height="200"><path d="M665.361067 535.210667c55.637333-51.541333 91.306667-130.491733 91.306666-218.862934 0-155.306667-109.943467-281.258667-245.4528-281.258666-135.645867 0-245.725867 125.952-245.725866 281.258666 0 85.1968 32.9728 161.450667 85.333333 213.0944-234.9056 63.249067-229.512533 405.162667-90.589867 405.162667 1.297067 0 2.56-0.238933 3.857067-0.341333 37.6832 12.629333 73.352533 15.803733 147.968 15.803733h34.030933c11.741867 15.633067 30.958933 23.586133 50.449067 18.773333l173.533867-19.933866c37.0688-1.877333 61.8496-6.109867 87.6544-14.779734 1.297067 0.1024 2.56 0.341333 3.9936 0.341334 151.4496 0.136533 166.126933-316.893867-96.3584-399.291734z m-287.573334-237.636267c24.064-14.165333 100.4544-107.1104 100.4544-107.1104s32.494933 69.2224 83.7632 104.5504c6.109867 4.232533 12.322133 8.192 18.432 12.0832 48.469333 5.495467 81.544533 19.3536 81.544534 50.449067 0 1.160533 0 2.4576-0.238934 3.754666 0.341333 1.160533 0.580267 2.218667 0.580267 3.413334 0 12.765867-5.870933 24.746667-14.5408 34.952533a182.033067 182.033067 0 0 1-61.269333 59.5968v80.2816H435.541333v-80.145067c-45.2608-26.624-75.6736-72.021333-75.6736-101.853866 0-1.399467 0.136533-2.798933 0.238934-4.232534-0.580267-16.896 1.058133-45.9776 17.749333-55.739733z m133.4272 548.181333l-0.238933 0.238934v-22.766934c-0.136533 1.672533-0.341333 3.413333-0.682667 5.051734a27.648 27.648 0 0 1-4.846933 10.820266c-3.072 4.334933-6.314667 8.430933-9.6256 12.424534l-20.2752 7.509333c-22.084267 5.290667-37.888 25.463467-40.482133 48.810667-10.103467 9.6256-20.206933 19.2512-29.696 29.457066 0 0-16.418133 7.168-37.7856 9.250134a113.732267 113.732267 0 0 1-16.759467 0.238933 86.254933 86.254933 0 0 1-17.749333-3.072 69.700267 69.700267 0 0 1-33.655467-20.855467c-10.24-11.605333-14.677333-24.746667-14.916267-38.6048-0.238933-13.858133 3.754667-28.16 9.5232-39.765333 11.502933-23.825067 28.9792-34.747733 28.740267-35.328 45.636267-18.295467 29.7984-12.663467 148.548267-36.9664l-2.218667 1.6384c1.877333-1.501867 9.591467-1.024 11.946667-1.160533a13.994667 13.994667 0 0 1 6.929066 0.9216 22.186667 22.186667 0 0 1 6.212267 3.652266 16.384 16.384 0 0 1 4.437333 5.973334c2.833067 6.007467 5.4272 11.502933 7.8848 17.032533 0.955733 2.116267 2.013867 4.778667 2.935467 7.850667 0.8192 2.730667 1.399467 5.7344 1.6384 8.8064v-219.306667h0.238933v248.149333h-0.1024z m187.733334-68.949333l-139.8784 51.473067a88.576 88.576 0 0 1-29.0816-65.570134c0-48.366933 37.9904-87.313067 84.923733-87.313066 47.069867 0 85.0944 39.082667 85.0944 87.313066 0.1024 4.676267-0.341333 9.386667-1.058133 14.062934z" fill="#8766F3" p-id="32315"></path></svg>