<?xml version="1.0" standalone="no"?><!DOCTYPE svg PUBLIC "-//W3C//DTD SVG 1.1//EN" "http://www.w3.org/Graphics/SVG/1.1/DTD/svg11.dtd"><svg t="1767931700486" class="icon" viewBox="0 0 1024 1024" version="1.1" xmlns="http://www.w3.org/2000/svg" p-id="44940" xmlns:xlink="http://www.w3.org/1999/xlink" width="200" height="200"><path d="M964.442064 138.216172c0-15.817568-65.529926-38.414095-81.347494-33.894789h-11.298263L822.083949 50.08972A225.965262 225.965262 0 0 0 770.111939 0.377362a483.565661 483.565661 0 0 0-284.716231 79.087842 149.137073 149.137073 0 0 0-20.336873 54.231663L446.981614 226.342624h-11.298263c-15.817568 0-51.97201 49.712358-47.452705 65.529926a31.635137 31.635137 0 0 0 38.414094 22.596527l70.049232-18.077221H512.51154A185.291515 185.291515 0 1 0 855.978739 199.226793l79.087841-22.596526A33.894789 33.894789 0 0 0 964.442064 138.216172z" fill="#FF9F43" p-id="44941"></path><path d="M799.487423 662.45558a94.90541 94.90541 0 0 0-45.193052 0L462.799182 382.258655a74.568537 74.568537 0 0 0-72.308884-20.336873 79.087842 79.087842 0 0 0-27.115831 15.817568A718.569534 718.569534 0 0 0 60.581015 951.691116a386.400598 386.400598 0 0 0 0 72.308884h555.874546V743.803075l27.115831 29.375484 15.817568 11.298263a51.97201 51.97201 0 0 0 51.972011 47.452705 56.491316 56.491316 0 0 0 54.231663-42.9334v-11.298263a33.894789 33.894789 0 0 1 31.635136-31.635137 31.635137 31.635137 0 0 1 31.635137 31.635137v246.302136h85.8668V777.697864a115.242284 115.242284 0 0 0-115.242284-115.242284z" fill="#FF9F43" p-id="44942"></path></svg>